<svg xmlns="http://www.w3.org/2000/svg" viewBox="0 0 48 48"><path fill="#282828" d="M5,24l3.562,1.703L9,24l-3.703-0.75C4.687,23.109,4.562,23.766,5,24z"/><path fill="#282828" d="M42.74,24l-3.563,1.703L38.74,24l3.703-0.75C43.053,23.109,43.178,23.766,42.74,24z"/><rect width="24" height="2" x="12" y="9" fill="#b6b6b6"/><linearGradient id="h5meV3LbhbDTnpooZTxgYa" x1="9.5" x2="9.5" y1="37.25" y2="44" gradientUnits="userSpaceOnUse"><stop offset="0" stop-color="#666"/><stop offset=".331" stop-color="#636363"/><stop offset=".575" stop-color="#5a5a5a"/><stop offset=".791" stop-color="#4a4a4a"/><stop offset=".99" stop-color="#343433"/><stop offset="1" stop-color="#333332"/></linearGradient><path fill="url(#h5meV3LbhbDTnpooZTxgYa)" d="M11.375,37H7.625C7.28,37,7,37.28,7,37.625v6.749C7,44.72,7.28,45,7.625,45h3.749C11.72,45,12,44.72,12,44.375v-6.749C12,37.28,11.72,37,11.375,37z"/><linearGradient id="h5meV3LbhbDTnpooZTxgYb" x1="38.5" x2="38.5" y1="37.25" y2="44" gradientUnits="userSpaceOnUse"><stop offset="0" stop-color="#666"/><stop offset=".331" stop-color="#636363"/><stop offset=".575" stop-color="#5a5a5a"/><stop offset=".791" stop-color="#4a4a4a"/><stop offset=".99" stop-color="#343433"/><stop offset="1" stop-color="#333332"/></linearGradient><path fill="url(#h5meV3LbhbDTnpooZTxgYb)" d="M40.375,37h-3.749C36.28,37,36,37.28,36,37.625v6.749C36,44.72,36.28,45,36.625,45h3.749C40.72,45,41,44.72,41,44.375v-6.749C41,37.28,40.72,37,40.375,37z"/><linearGradient id="h5meV3LbhbDTnpooZTxgYc" x1="23.997" x2="23.997" y1="30.625" y2="41.594" gradientUnits="userSpaceOnUse"><stop offset="0" stop-color="#343838"/><stop offset=".999" stop-color="#171714"/></linearGradient><path fill="url(#h5meV3LbhbDTnpooZTxgYc)" d="M5.318,29c-0.215,0.874-0.317,1.779-0.298,2.683c0.072,3.361,0.328,4.926,0.699,7.651c0.13,0.958,0.888,1.7,1.831,1.78L18,42h12l10.426-0.885c0.948-0.08,1.711-0.83,1.832-1.795c0.338-2.682,0.628-4.231,0.715-7.541c0.025-0.939-0.082-1.877-0.307-2.78H5.318z"/><linearGradient id="h5meV3LbhbDTnpooZTxgYd" x1="24.158" x2="22.147" y1="27.129" y2="12.788" gradientUnits="userSpaceOnUse"><stop offset="0" stop-color="#999"/><stop offset="1" stop-color="#e0e0e0"/></linearGradient><path fill="url(#h5meV3LbhbDTnpooZTxgYd)" d="M41,26H7l2.496-13.577c0.3-1.629,1.668-2.85,3.32-2.974c7.886-0.591,14.64-0.604,22.376-0.008c1.649,0.127,3.012,1.348,3.311,2.974L41,26z"/><linearGradient id="h5meV3LbhbDTnpooZTxgYe" x1="23.999" x2="23.999" y1="11.34" y2="27.635" gradientUnits="userSpaceOnUse"><stop offset="0" stop-color="gray"/><stop offset="1" stop-color="#1a1a1a"/></linearGradient><path fill="url(#h5meV3LbhbDTnpooZTxgYe)" d="M36.583,23.625c-8.75-0.979-16.496-0.719-25.271,0c-1.271,0.104-2.145-0.938-2.004-1.805l1.542-9.249c0.143-0.881,1.044-1.568,1.983-1.654c7.458-0.684,14.578-0.666,22.292,0.021c0.942,0.084,1.856,0.741,2,1.625l1.567,9.257C38.833,22.686,37.878,23.77,36.583,23.625z"/><linearGradient id="h5meV3LbhbDTnpooZTxgYf" x1="24" x2="24" y1="11.61" y2="22.023" gradientUnits="userSpaceOnUse"><stop offset="0" stop-color="#5ba5ea"/><stop offset="1" stop-color="#315b8e"/></linearGradient><path fill="url(#h5meV3LbhbDTnpooZTxgYf)" d="M36.502,22.989c-8.349-1.001-16.684-0.995-25.004,0.001c-0.876,0.105-1.616-0.601-1.482-1.426l1.4-8.502c0.137-0.839,0.855-1.493,1.749-1.575c7.099-0.651,14.32-0.65,21.663,0.004c0.896,0.08,1.621,0.734,1.758,1.575l1.399,8.496C38.118,22.388,37.378,23.094,36.502,22.989z"/><linearGradient id="h5meV3LbhbDTnpooZTxgYg" x1="24" x2="24" y1="35.7" y2="40.764" gradientUnits="userSpaceOnUse"><stop offset="0" stop-color="#4d4d4d"/><stop offset=".999" stop-color="#171714"/></linearGradient><path fill="url(#h5meV3LbhbDTnpooZTxgYg)" d="M7.65,39.06l10.182,0.936C17.861,39.999,17.889,40,17.917,40h12.166c0.028,0,0.056-0.001,0.084-0.004L40.35,39.06c0.39-0.036,0.714-0.314,0.809-0.694l0.556-1.222C41.859,36.563,41.42,36,40.821,36H7.179c-0.599,0-1.038,0.563-0.893,1.144l0.556,1.222C6.936,38.746,7.261,39.024,7.65,39.06z"/><linearGradient id="h5meV3LbhbDTnpooZTxgYh" x1="23.999" x2="23.999" y1="37.698" y2="25.227" gradientUnits="userSpaceOnUse"><stop offset="0" stop-color="#999"/><stop offset="1" stop-color="#e0e0e0"/></linearGradient><path fill="url(#h5meV3LbhbDTnpooZTxgYh)" d="M42.866,30c-0.228-1.578-0.816-3.091-1.791-4.345l-0.028-0.035C39,23,9,23,6.952,25.619c-0.309,0.407-0.585,0.832-0.83,1.274C5.592,27.85,5.283,28.912,5.133,30C17.628,33.618,30.203,33.715,42.866,30z"/><path fill="#1a1a1a" d="M17,41L17,41c-0.552,0-1-0.448-1-1v-6c0-0.552,0.448-1,1-1h0c0.552,0,1,0.448,1,1v6C18,40.552,17.552,41,17,41z"/><path fill="#1a1a1a" d="M31,41L31,41c-0.552,0-1-0.448-1-1v-6c0-0.552,0.448-1,1-1h0c0.552,0,1,0.448,1,1v6C32,40.552,31.552,41,31,41z"/><linearGradient id="h5meV3LbhbDTnpooZTxgYi" x1="18" x2="18" y1="6.188" y2="8.875" gradientUnits="userSpaceOnUse"><stop offset="0" stop-color="#29b6f6"/><stop offset="1" stop-color="#315b8e"/></linearGradient><path fill="url(#h5meV3LbhbDTnpooZTxgYi)" d="M24,9H12l0.697-2.09C12.878,6.367,13.387,6,13.96,6H24V9z"/><linearGradient id="h5meV3LbhbDTnpooZTxgYj" x1="30" x2="30" y1="6.5" y2="8.956" gradientUnits="userSpaceOnUse"><stop offset="0" stop-color="#ff7448"/><stop offset="1" stop-color="#e51e25"/></linearGradient><path fill="url(#h5meV3LbhbDTnpooZTxgYj)" d="M24,9h12l-0.697-2.09C35.122,6.367,34.613,6,34.04,6H24V9z"/><ellipse cx="27" cy="7.5" fill="#ff7348" rx="1" ry=".5"/><ellipse cx="30" cy="7.5" fill="#ff7348" rx="1" ry=".5"/><ellipse cx="33" cy="7.5" fill="#ff7348" rx="1" ry=".5"/><ellipse cx="15" cy="7.5" fill="#2cabe7" rx="1" ry=".5"/><ellipse cx="18" cy="7.5" fill="#2cabe7" rx="1" ry=".5"/><ellipse cx="21" cy="7.5" fill="#2cabe7" rx="1" ry=".5"/><path fill="#1a1a1a" d="M40.266,27.5c-4.958,0.917-9.498,1.886-16.266,1.875c-6.49-0.01-12.104-1.104-16.438-1.938L6,31c0.812,1.375,1.98,1.995,3,2h30c1.469,0,2.594-0.906,3-2L40.266,27.5z"/><path fill="#4d4d4d" d="M13.965,32.553l-5.638,0c-1.442,0-2.592-1.332-2.764-3.006c-0.078-1.544,0.656-2.391,2.061-2.135l5.72,1.068c1.66,0.213,2.25,0.833,2.261,2.238C15.605,31.741,14.906,32.553,13.965,32.553z"/><path fill="#4d4d4d" d="M34.197,32.553l5.638,0c1.442,0,2.592-1.332,2.764-3.006c0.078-1.544-0.656-2.391-2.061-2.135l-5.72,1.068c-1.66,0.213-2.25,0.833-2.261,2.238C32.557,31.741,33.256,32.553,34.197,32.553z"/><linearGradient id="h5meV3LbhbDTnpooZTxgYk" x1="10.508" x2="10.508" y1="28.267" y2="31.769" gradientUnits="userSpaceOnUse"><stop offset="0" stop-color="#fff"/><stop offset="1" stop-color="#90a4ae"/></linearGradient><path fill="url(#h5meV3LbhbDTnpooZTxgYk)" d="M13.813,32H8.459c-1.296,0-2.367-1.019-2.442-2.324c-0.019-0.972,0.267-1.843,1.235-1.649l5.715,0.988C14.381,29.248,15,29.606,15,30.56v0.243C15,31.464,14.469,32,13.813,32z"/><ellipse cx="11.444" cy="30.507" fill="#dce3e6" rx="1.524" ry="1.493"/><linearGradient id="h5meV3LbhbDTnpooZTxgYl" x1="7.316" x2="7.316" y1="28.855" y2="31.209" gradientUnits="userSpaceOnUse"><stop offset="0" stop-color="#ffb74d"/><stop offset="1" stop-color="#ed9216"/></linearGradient><path fill="url(#h5meV3LbhbDTnpooZTxgYl)" d="M7.492,28.069l-0.24-0.041c-1.016-0.163-1.334,0.63-1.235,1.649C6.092,30.981,7.164,32,8.459,32h0.174C7.917,30.079,7.615,29.168,7.492,28.069z"/><linearGradient id="h5meV3LbhbDTnpooZTxgYm" x1="21.508" x2="21.508" y1="28.267" y2="31.769" gradientTransform="matrix(-1 0 0 1 59 0)" gradientUnits="userSpaceOnUse"><stop offset="0" stop-color="#fff"/><stop offset="1" stop-color="#90a4ae"/></linearGradient><path fill="url(#h5meV3LbhbDTnpooZTxgYm)" d="M34.187,32h5.354c1.296,0,2.367-1.019,2.442-2.324c0.019-0.972-0.267-1.843-1.235-1.649l-5.715,0.988C33.619,29.248,33,29.606,33,30.56v0.243C33,31.464,33.531,32,34.187,32z"/><ellipse cx="36.556" cy="30.507" fill="#dce3e6" rx="1.524" ry="1.493"/><linearGradient id="h5meV3LbhbDTnpooZTxgYn" x1="18.317" x2="18.317" y1="28.855" y2="31.209" gradientTransform="matrix(-1 0 0 1 59 0)" gradientUnits="userSpaceOnUse"><stop offset="0" stop-color="#ffb74d"/><stop offset="1" stop-color="#ed9216"/></linearGradient><path fill="url(#h5meV3LbhbDTnpooZTxgYn)" d="M40.508,28.069l0.24-0.041c1.016-0.163,1.334,0.63,1.235,1.649C41.908,30.981,40.836,32,39.541,32h-0.174C40.083,30.079,40.384,29.168,40.508,28.069z"/><circle cx="19.5" cy="32.5" r="2.083" fill="#313535"/><circle cx="28.5" cy="32.5" r="2.125" fill="#313535"/><circle cx="19.5" cy="32.5" r="1.5" fill="#5ba5e8"/><circle cx="28.5" cy="32.5" r="1.5" fill="#e82a2a"/><ellipse cx="28.5" cy="31.688" fill="#ef9a9a" rx=".672" ry=".313"/><path fill="#b5ddf5" d="M20.187,31.688c0,0.173-0.301,0.313-0.672,0.313s-0.672-0.14-0.672-0.313s0.301-0.313,0.672-0.313S20.187,31.515,20.187,31.688z"/><path fill="#315b8d" d="M10.016,21.564c-0.134,0.825,0.606,1.531,1.482,1.426c8.321-0.995,16.656-1.002,25.004-0.001c0.876,0.105,1.617-0.601,1.482-1.426C28.773,18.929,19.448,19.027,10.016,21.564z"/><path fill="#315b8d" d="M15.201,16h3.599C19.462,16,20,16.538,20,17.201v3.436h-6v-3.436C14,16.538,14.538,16,15.201,16z"/><path fill="#315b8d" d="M29.201,16h3.599C33.462,16,34,16.538,34,17.201v3.436h-6v-3.436C28,16.538,28.538,16,29.201,16z"/><linearGradient id="h5meV3LbhbDTnpooZTxgYo" x1="22.245" x2="2.41" y1="18.499" y2="12.164" gradientUnits="userSpaceOnUse"><stop offset="0" stop-color="#fff" stop-opacity="0"/><stop offset=".479" stop-color="#fff" stop-opacity=".272"/><stop offset="1" stop-color="#fff"/></linearGradient><path fill="url(#h5meV3LbhbDTnpooZTxgYo)" d="M24,11.001c-3.643-0.004-7.255,0.158-10.836,0.486c-0.894,0.082-1.612,0.736-1.749,1.575l-1.4,8.502c-0.134,0.825,0.606,1.531,1.482,1.426c4.164-0.498,8.332-0.749,12.503-0.749V11.001z"/><path fill="#ccc" d="M36.506,24.294c-1.812,1.635-3.259,2.835-7.006,4.206c4.1-0.735,6.928-1.95,9.065-3.865L36.506,24.294z"/><path fill="#ccc" d="M11.496,24.294c1.812,1.635,3.259,2.835,7.006,4.206c-4.1-0.735-6.928-1.95-9.065-3.865L11.496,24.294z"/><linearGradient id="h5meV3LbhbDTnpooZTxgYp" x1="2.245" x2="5.365" y1="22.386" y2="23.58" gradientUnits="userSpaceOnUse"><stop offset="0" stop-color="#666"/><stop offset="1" stop-color="#1a1a1a"/></linearGradient><path fill="url(#h5meV3LbhbDTnpooZTxgYp)" d="M3.063,25h2.094C5.622,25,6,24.622,6,24.156v-1.953C6,21.539,5.462,21,4.797,21H2.5C1.672,21,1,21.672,1,22.5v0.438C1,24.077,1.924,25,3.063,25z"/><linearGradient id="h5meV3LbhbDTnpooZTxgYq" x1="49.391" x2="43.504" y1="21.286" y2="23.469" gradientTransform="matrix(-1 0 0 1 89 0)" gradientUnits="userSpaceOnUse"><stop offset="0" stop-color="#666"/><stop offset="1" stop-color="#1a1a1a"/></linearGradient><path fill="url(#h5meV3LbhbDTnpooZTxgYq)" d="M44.938,25h-2.094C42.378,25,42,24.622,42,24.156v-1.953C42,21.539,42.539,21,43.203,21H45.5c0.828,0,1.5,0.672,1.5,1.5v0.438C47,24.077,46.077,25,44.938,25z"/></svg>